<svg width="196" height="85" viewBox="0 0 196 85" fill="none" xmlns="http://www.w3.org/2000/svg">
<rect width="196" height="85" fill="#0E0E23"/>
<path d="M31.65 63.35C29.75 63.35 28.0833 62.8333 26.65 61.8C25.2167 60.8 24.0833 59.3667 23.25 57.5C22.45 55.6333 22.05 53.45 22.05 50.95C22.05 48.3833 22.45 45.7833 23.25 43.15C24.0833 40.5167 25.2 38 26.6 35.6C28 33.2 29.5833 31.0667 31.35 29.2C33.1167 27.3 34.9833 25.8 36.95 24.7C38.9167 23.6 40.85 23.05 42.75 23.05C43.3833 23.05 43.95 23.1 44.45 23.2C44.95 23.3 45.3833 23.45 45.75 23.65C45.4833 23.65 45.3167 23.65 45.25 23.65C45.2167 23.65 45.1833 23.65 45.15 23.65C43.4167 23.65 41.6667 24.2333 39.9 25.4C38.1333 26.5333 36.45 28.0833 34.85 30.05C33.25 31.9833 31.8167 34.1667 30.55 36.6C29.2833 39 28.2833 41.5 27.55 44.1C26.8167 46.7 26.45 49.2167 26.45 51.65C26.45 53.4167 26.6667 55.0667 27.1 56.6C27.5667 58.1333 28.3 59.35 29.3 60.25C30.3 61.1833 31.5833 61.65 33.15 61.65C35.0167 61.65 36.7667 61.0667 38.4 59.9C40.0333 58.7667 41.5 57.2167 42.8 55.25C44.1333 53.2833 45.2667 51.1 46.2 48.7C47.1667 46.2667 47.9 43.7667 48.4 41.2C48.9333 38.6 49.2 36.1167 49.2 33.75C49.2 32.8167 49.1333 31.8167 49 30.75C48.8667 29.6833 48.6333 28.7667 48.3 28C47.9667 27.2333 47.5167 26.85 46.95 26.85C46.35 26.85 45.7 27.2333 45 28C44.3 28.7333 43.6167 29.6667 42.95 30.8C42.3167 31.9333 41.75 33.1167 41.25 34.35C40.75 35.55 40.4 36.6167 40.2 37.55C39.3667 37.35 38.75 37.0333 38.35 36.6C37.9833 36.1333 37.8 35.6333 37.8 35.1C37.8 34.2 38.1 33.2167 38.7 32.15C39.3333 31.05 40.1167 30 41.05 29C42.0167 27.9667 43.0167 27.1333 44.05 26.5C45.0833 25.8333 46.0167 25.5 46.85 25.5C47.7167 25.5 48.4167 25.8167 48.95 26.45C49.5167 27.0833 49.95 27.9 50.25 28.9C50.5833 29.8667 50.8 30.9167 50.9 32.05C51.0333 33.15 51.1 34.1833 51.1 35.15C51.1 38.7833 50.6833 42.1 49.85 45.1C49.05 48.0667 47.95 50.6833 46.55 52.95C45.1833 55.2167 43.65 57.1333 41.95 58.7C40.25 60.2333 38.5 61.3833 36.7 62.15C34.9333 62.95 33.25 63.35 31.65 63.35ZM64.1523 59.45C62.6523 59.45 61.1357 59.2667 59.6023 58.9C58.1023 58.5333 56.7023 57.9 55.4023 57C55.069 56.7667 54.8357 56.5 54.7023 56.2C54.569 55.8667 54.519 55.55 54.5523 55.25C54.619 54.9167 54.7523 54.6333 54.9523 54.4C55.1857 54.1667 55.4523 54.0333 55.7523 54C56.0857 53.9333 56.4523 54 56.8523 54.2C58.1523 55 59.4023 55.5667 60.6023 55.9C61.8357 56.2 63.0523 56.35 64.2523 56.35C66.1523 56.35 67.5857 56 68.5523 55.3C69.519 54.6 70.0023 53.65 70.0023 52.45C70.0023 51.5167 69.6857 50.7833 69.0523 50.25C68.419 49.6833 67.419 49.25 66.0523 48.95L61.5023 47.95C59.4023 47.5167 57.8357 46.7667 56.8023 45.7C55.8023 44.6333 55.3023 43.25 55.3023 41.55C55.3023 40.05 55.6857 38.7667 56.4523 37.7C57.2523 36.6 58.369 35.75 59.8023 35.15C61.2357 34.55 62.9023 34.25 64.8023 34.25C66.269 34.25 67.6523 34.45 68.9523 34.85C70.2857 35.2167 71.4857 35.8167 72.5523 36.65C72.8857 36.8833 73.1023 37.1667 73.2023 37.5C73.3357 37.8 73.3523 38.1167 73.2523 38.45C73.1857 38.75 73.0357 39.0167 72.8023 39.25C72.569 39.45 72.2857 39.5667 71.9523 39.6C71.619 39.6333 71.269 39.5333 70.9023 39.3C69.9023 38.6333 68.8857 38.15 67.8523 37.85C66.819 37.5167 65.8023 37.35 64.8023 37.35C62.9357 37.35 61.519 37.7167 60.5523 38.45C59.5857 39.1833 59.1023 40.15 59.1023 41.35C59.1023 42.2833 59.4023 43.05 60.0023 43.65C60.6023 44.25 61.5357 44.6833 62.8023 44.95L67.3523 45.9C69.519 46.3667 71.1357 47.1167 72.2023 48.15C73.3023 49.15 73.8523 50.5167 73.8523 52.25C73.8523 54.45 72.969 56.2 71.2023 57.5C69.4357 58.8 67.0857 59.45 64.1523 59.45ZM89.5305 59.45C87.6305 59.45 86.0305 59.1167 84.7305 58.45C83.4638 57.75 82.5138 56.75 81.8805 55.45C81.2471 54.1167 80.9305 52.5 80.9305 50.6V37.85H77.5805C77.0138 37.85 76.5805 37.7167 76.2805 37.45C75.9805 37.15 75.8305 36.75 75.8305 36.25C75.8305 35.75 75.9805 35.3667 76.2805 35.1C76.5805 34.8333 77.0138 34.7 77.5805 34.7H80.9305V28.95C80.9305 28.2833 81.1138 27.7833 81.4805 27.45C81.8471 27.0833 82.3471 26.9 82.9805 26.9C83.6138 26.9 84.0971 27.0833 84.4305 27.45C84.7971 27.7833 84.9805 28.2833 84.9805 28.95V34.7H91.2805C91.8471 34.7 92.2805 34.8333 92.5805 35.1C92.8805 35.3667 93.0305 35.75 93.0305 36.25C93.0305 36.75 92.8805 37.15 92.5805 37.45C92.2805 37.7167 91.8471 37.85 91.2805 37.85H84.9805V50.2C84.9805 52.1 85.3805 53.55 86.1805 54.55C86.9805 55.5167 88.2805 56 90.0805 56C90.7138 56 91.2471 55.9333 91.6805 55.8C92.1471 55.6667 92.5305 55.6 92.8305 55.6C93.1305 55.5667 93.3805 55.6667 93.5805 55.9C93.7805 56.1333 93.8805 56.5333 93.8805 57.1C93.8805 57.5 93.7971 57.8667 93.6305 58.2C93.4971 58.5333 93.2471 58.7667 92.8805 58.9C92.4805 59.0333 91.9471 59.15 91.2805 59.25C90.6471 59.3833 90.0638 59.45 89.5305 59.45ZM102.954 68.35C102.454 68.35 102.054 68.2167 101.754 67.95C101.454 67.6833 101.271 67.3167 101.204 66.85C101.171 66.4167 101.254 65.9667 101.454 65.5L104.904 57.75V59.5L95.3039 37.2C95.1039 36.7 95.0372 36.2333 95.1039 35.8C95.1706 35.3667 95.3706 35.0167 95.7039 34.75C96.0372 34.4833 96.5039 34.35 97.1039 34.35C97.6372 34.35 98.0539 34.4667 98.3539 34.7C98.6539 34.9333 98.9206 35.35 99.1539 35.95L107.354 56.05H106.004L114.304 35.95C114.571 35.35 114.854 34.9333 115.154 34.7C115.454 34.4667 115.887 34.35 116.454 34.35C116.987 34.35 117.387 34.4833 117.654 34.75C117.954 35.0167 118.121 35.3667 118.154 35.8C118.221 36.2 118.154 36.65 117.954 37.15L105.154 66.75C104.887 67.35 104.587 67.7667 104.254 68C103.954 68.2333 103.521 68.35 102.954 68.35ZM125.238 59.35C124.571 59.35 124.071 59.1667 123.738 58.8C123.404 58.4333 123.238 57.9167 123.238 57.25V36.4C123.238 35.7333 123.404 35.2333 123.738 34.9C124.071 34.5333 124.554 34.35 125.188 34.35C125.821 34.35 126.304 34.5333 126.638 34.9C127.004 35.2333 127.188 35.7333 127.188 36.4V40.7L126.638 40.1C127.338 38.1667 128.471 36.7167 130.038 35.75C131.638 34.75 133.471 34.25 135.538 34.25C137.471 34.25 139.071 34.6 140.338 35.3C141.638 36 142.604 37.0667 143.238 38.5C143.871 39.9 144.188 41.6833 144.188 43.85V57.25C144.188 57.9167 144.004 58.4333 143.638 58.8C143.304 59.1667 142.821 59.35 142.188 59.35C141.521 59.35 141.004 59.1667 140.638 58.8C140.304 58.4333 140.138 57.9167 140.138 57.25V44.1C140.138 41.8333 139.688 40.1833 138.788 39.15C137.921 38.0833 136.521 37.55 134.588 37.55C132.354 37.55 130.571 38.25 129.238 39.65C127.938 41.0167 127.288 42.85 127.288 45.15V57.25C127.288 58.65 126.604 59.35 125.238 59.35ZM159.305 59.45C157.639 59.45 156.139 59.1333 154.805 58.5C153.505 57.8333 152.472 56.9333 151.705 55.8C150.939 54.6667 150.555 53.4 150.555 52C150.555 50.2 151.005 48.7833 151.905 47.75C152.839 46.7167 154.355 45.9833 156.455 45.55C158.589 45.1167 161.489 44.9 165.155 44.9H167.405V47.55H165.205C162.505 47.55 160.372 47.6833 158.805 47.95C157.272 48.1833 156.189 48.6 155.555 49.2C154.955 49.8 154.655 50.65 154.655 51.75C154.655 53.1167 155.122 54.2333 156.055 55.1C157.022 55.9667 158.322 56.4 159.955 56.4C161.289 56.4 162.455 56.0833 163.455 55.45C164.489 54.8167 165.289 53.95 165.855 52.85C166.455 51.75 166.755 50.4833 166.755 49.05V43.35C166.755 41.2833 166.339 39.8 165.505 38.9C164.672 37.9667 163.305 37.5 161.405 37.5C160.239 37.5 159.072 37.65 157.905 37.95C156.739 38.25 155.505 38.7333 154.205 39.4C153.739 39.6333 153.339 39.7167 153.005 39.65C152.672 39.55 152.405 39.3667 152.205 39.1C152.005 38.8333 151.889 38.5333 151.855 38.2C151.822 37.8333 151.889 37.4833 152.055 37.15C152.255 36.8167 152.555 36.55 152.955 36.35C154.422 35.6167 155.872 35.0833 157.305 34.75C158.739 34.4167 160.105 34.25 161.405 34.25C163.505 34.25 165.239 34.6 166.605 35.3C167.972 35.9667 168.989 37 169.655 38.4C170.322 39.7667 170.655 41.5333 170.655 43.7V57.25C170.655 57.9167 170.489 58.4333 170.155 58.8C169.855 59.1667 169.405 59.35 168.805 59.35C168.172 59.35 167.689 59.1667 167.355 58.8C167.022 58.4333 166.855 57.9167 166.855 57.25V53.35H167.305C167.039 54.6167 166.522 55.7 165.755 56.6C165.022 57.5 164.105 58.2 163.005 58.7C161.905 59.2 160.672 59.45 159.305 59.45Z" fill="#F0E8DA"/>
</svg>
