<svg width="98" height="180" viewBox="0 0 98 180" fill="none" xmlns="http://www.w3.org/2000/svg">
<path d="M31.95 151.05C26.25 151.05 21.25 149.5 16.95 146.4C12.65 143.4 9.25 139.1 6.75 133.5C4.35 127.9 3.15 121.35 3.15 113.85C3.15 106.15 4.35 98.35 6.75 90.45C9.25 82.55 12.6 75 16.8 67.8C21 60.6 25.75 54.2 31.05 48.6C36.35 42.9 41.95 38.4 47.85 35.1C53.75 31.8 59.55 30.15 65.25 30.15C67.15 30.15 68.85 30.3 70.35 30.6C71.85 30.9 73.15 31.35 74.25 31.95C73.45 31.95 72.95 31.95 72.75 31.95C72.65 31.95 72.55 31.95 72.45 31.95C67.25 31.95 62 33.7 56.7 37.2C51.4 40.6 46.35 45.25 41.55 51.15C36.75 56.95 32.45 63.5 28.65 70.8C24.85 78 21.85 85.5 19.65 93.3C17.45 101.1 16.35 108.65 16.35 115.95C16.35 121.25 17 126.2 18.3 130.8C19.7 135.4 21.9 139.05 24.9 141.75C27.9 144.55 31.75 145.95 36.45 145.95C42.05 145.95 47.3 144.2 52.2 140.7C57.1 137.3 61.5 132.65 65.4 126.75C69.4 120.85 72.8 114.3 75.6 107.1C78.5 99.8 80.7 92.3 82.2 84.6C83.8 76.8 84.6 69.35 84.6 62.25C84.6 59.45 84.4 56.45 84 53.25C83.6 50.05 82.9 47.3 81.9 45C80.9 42.7 79.55 41.55 77.85 41.55C76.05 41.55 74.1 42.7 72 45C69.9 47.2 67.85 50 65.85 53.4C63.95 56.8 62.25 60.35 60.75 64.05C59.25 67.65 58.2 70.85 57.6 73.65C55.1 73.05 53.25 72.1 52.05 70.8C50.95 69.4 50.4 67.9 50.4 66.3C50.4 63.6 51.3 60.65 53.1 57.45C55 54.15 57.35 51 60.15 48C63.05 44.9 66.05 42.4 69.15 40.5C72.25 38.5 75.05 37.5 77.55 37.5C80.15 37.5 82.25 38.45 83.85 40.35C85.55 42.25 86.85 44.7 87.75 47.7C88.75 50.6 89.4 53.75 89.7 57.15C90.1 60.45 90.3 63.55 90.3 66.45C90.3 77.35 89.05 87.3 86.55 96.3C84.15 105.2 80.85 113.05 76.65 119.85C72.55 126.65 67.95 132.4 62.85 137.1C57.75 141.7 52.5 145.15 47.1 147.45C41.8 149.85 36.75 151.05 31.95 151.05Z" fill="url(#paint0_linear_1_50)"/>
<rect x="94" y="20" width="4" height="140" fill="#ED9403"/>
<defs>
<linearGradient id="paint0_linear_1_50" x1="75.5" y1="21.5" x2="13" y2="156" gradientUnits="userSpaceOnUse">
<stop offset="0.296875" stop-color="#F0E8DA"/>
<stop offset="0.833333" stop-color="#DCD0BB"/>
</linearGradient>
</defs>
</svg>
