<svg width="196" height="180" viewBox="0 0 196 180" fill="none" xmlns="http://www.w3.org/2000/svg">
<rect width="196" height="180" fill="#0E0E23"/>
<path d="M82.95 151.05C77.25 151.05 72.25 149.5 67.95 146.4C63.65 143.4 60.25 139.1 57.75 133.5C55.35 127.9 54.15 121.35 54.15 113.85C54.15 106.15 55.35 98.35 57.75 90.45C60.25 82.55 63.6 75 67.8 67.8C72 60.6 76.75 54.2 82.05 48.6C87.35 42.9 92.95 38.4 98.85 35.1C104.75 31.8 110.55 30.15 116.25 30.15C118.15 30.15 119.85 30.3 121.35 30.6C122.85 30.9 124.15 31.35 125.25 31.95C124.45 31.95 123.95 31.95 123.75 31.95C123.65 31.95 123.55 31.95 123.45 31.95C118.25 31.95 113 33.7 107.7 37.2C102.4 40.6 97.35 45.25 92.55 51.15C87.75 56.95 83.45 63.5 79.65 70.8C75.85 78 72.85 85.5 70.65 93.3C68.45 101.1 67.35 108.65 67.35 115.95C67.35 121.25 68 126.2 69.3 130.8C70.7 135.4 72.9 139.05 75.9 141.75C78.9 144.55 82.75 145.95 87.45 145.95C93.05 145.95 98.3 144.2 103.2 140.7C108.1 137.3 112.5 132.65 116.4 126.75C120.4 120.85 123.8 114.3 126.6 107.1C129.5 99.8 131.7 92.3 133.2 84.6C134.8 76.8 135.6 69.35 135.6 62.25C135.6 59.45 135.4 56.45 135 53.25C134.6 50.05 133.9 47.3 132.9 45C131.9 42.7 130.55 41.55 128.85 41.55C127.05 41.55 125.1 42.7 123 45C120.9 47.2 118.85 50 116.85 53.4C114.95 56.8 113.25 60.35 111.75 64.05C110.25 67.65 109.2 70.85 108.6 73.65C106.1 73.05 104.25 72.1 103.05 70.8C101.95 69.4 101.4 67.9 101.4 66.3C101.4 63.6 102.3 60.65 104.1 57.45C106 54.15 108.35 51 111.15 48C114.05 44.9 117.05 42.4 120.15 40.5C123.25 38.5 126.05 37.5 128.55 37.5C131.15 37.5 133.25 38.45 134.85 40.35C136.55 42.25 137.85 44.7 138.75 47.7C139.75 50.6 140.4 53.75 140.7 57.15C141.1 60.45 141.3 63.55 141.3 66.45C141.3 77.35 140.05 87.3 137.55 96.3C135.15 105.2 131.85 113.05 127.65 119.85C123.55 126.65 118.95 132.4 113.85 137.1C108.75 141.7 103.5 145.15 98.1 147.45C92.8 149.85 87.75 151.05 82.95 151.05Z" fill="url(#paint0_linear_1_60)"/>
<rect x="145" y="20" width="4" height="140" fill="#ED9403"/>
<defs>
<linearGradient id="paint0_linear_1_60" x1="126.5" y1="21.5" x2="64" y2="156" gradientUnits="userSpaceOnUse">
<stop offset="0.296875" stop-color="#F0E8DA"/>
<stop offset="0.833333" stop-color="#DCD0BB"/>
</linearGradient>
</defs>
</svg>
