<svg width="149" height="46" viewBox="0 0 149 46" fill="none" xmlns="http://www.w3.org/2000/svg">
<path d="M9.65 40.35C7.75 40.35 6.08333 39.8333 4.65 38.8C3.21667 37.8 2.08333 36.3667 1.25 34.5C0.45 32.6333 0.0500001 30.45 0.0500001 27.95C0.0500001 25.3833 0.45 22.7833 1.25 20.15C2.08333 17.5167 3.2 15 4.6 12.6C6 10.2 7.58333 8.06667 9.35 6.2C11.1167 4.3 12.9833 2.8 14.95 1.7C16.9167 0.599998 18.85 0.0499979 20.75 0.0499979C21.3833 0.0499979 21.95 0.0999983 22.45 0.199999C22.95 0.299998 23.3833 0.449998 23.75 0.649999C23.4833 0.649999 23.3167 0.649999 23.25 0.649999C23.2167 0.649999 23.1833 0.649999 23.15 0.649999C21.4167 0.649999 19.6667 1.23333 17.9 2.4C16.1333 3.53333 14.45 5.08333 12.85 7.05C11.25 8.98333 9.81667 11.1667 8.55 13.6C7.28333 16 6.28333 18.5 5.55 21.1C4.81667 23.7 4.45 26.2167 4.45 28.65C4.45 30.4167 4.66667 32.0667 5.1 33.6C5.56667 35.1333 6.3 36.35 7.3 37.25C8.3 38.1833 9.58333 38.65 11.15 38.65C13.0167 38.65 14.7667 38.0667 16.4 36.9C18.0333 35.7667 19.5 34.2167 20.8 32.25C22.1333 30.2833 23.2667 28.1 24.2 25.7C25.1667 23.2667 25.9 20.7667 26.4 18.2C26.9333 15.6 27.2 13.1167 27.2 10.75C27.2 9.81667 27.1333 8.81666 27 7.75C26.8667 6.68333 26.6333 5.76667 26.3 5C25.9667 4.23333 25.5167 3.85 24.95 3.85C24.35 3.85 23.7 4.23333 23 5C22.3 5.73333 21.6167 6.66666 20.95 7.8C20.3167 8.93333 19.75 10.1167 19.25 11.35C18.75 12.55 18.4 13.6167 18.2 14.55C17.3667 14.35 16.75 14.0333 16.35 13.6C15.9833 13.1333 15.8 12.6333 15.8 12.1C15.8 11.2 16.1 10.2167 16.7 9.15C17.3333 8.05 18.1167 7 19.05 6C20.0167 4.96666 21.0167 4.13333 22.05 3.5C23.0833 2.83333 24.0167 2.5 24.85 2.5C25.7167 2.5 26.4167 2.81667 26.95 3.45C27.5167 4.08333 27.95 4.9 28.25 5.9C28.5833 6.86667 28.8 7.91667 28.9 9.05C29.0333 10.15 29.1 11.1833 29.1 12.15C29.1 15.7833 28.6833 19.1 27.85 22.1C27.05 25.0667 25.95 27.6833 24.55 29.95C23.1833 32.2167 21.65 34.1333 19.95 35.7C18.25 37.2333 16.5 38.3833 14.7 39.15C12.9333 39.95 11.25 40.35 9.65 40.35ZM42.1523 36.45C40.6523 36.45 39.1357 36.2667 37.6023 35.9C36.1023 35.5333 34.7023 34.9 33.4023 34C33.069 33.7667 32.8357 33.5 32.7023 33.2C32.569 32.8667 32.519 32.55 32.5523 32.25C32.619 31.9167 32.7523 31.6333 32.9523 31.4C33.1857 31.1667 33.4523 31.0333 33.7523 31C34.0857 30.9333 34.4523 31 34.8523 31.2C36.1523 32 37.4023 32.5667 38.6023 32.9C39.8357 33.2 41.0523 33.35 42.2523 33.35C44.1523 33.35 45.5857 33 46.5523 32.3C47.519 31.6 48.0023 30.65 48.0023 29.45C48.0023 28.5167 47.6857 27.7833 47.0523 27.25C46.419 26.6833 45.419 26.25 44.0523 25.95L39.5023 24.95C37.4023 24.5167 35.8357 23.7667 34.8023 22.7C33.8023 21.6333 33.3023 20.25 33.3023 18.55C33.3023 17.05 33.6857 15.7667 34.4523 14.7C35.2523 13.6 36.369 12.75 37.8023 12.15C39.2357 11.55 40.9023 11.25 42.8023 11.25C44.269 11.25 45.6523 11.45 46.9523 11.85C48.2857 12.2167 49.4857 12.8167 50.5523 13.65C50.8857 13.8833 51.1023 14.1667 51.2023 14.5C51.3357 14.8 51.3523 15.1167 51.2523 15.45C51.1857 15.75 51.0357 16.0167 50.8023 16.25C50.569 16.45 50.2857 16.5667 49.9523 16.6C49.619 16.6333 49.269 16.5333 48.9023 16.3C47.9023 15.6333 46.8857 15.15 45.8523 14.85C44.819 14.5167 43.8023 14.35 42.8023 14.35C40.9357 14.35 39.519 14.7167 38.5523 15.45C37.5857 16.1833 37.1023 17.15 37.1023 18.35C37.1023 19.2833 37.4023 20.05 38.0023 20.65C38.6023 21.25 39.5357 21.6833 40.8023 21.95L45.3523 22.9C47.519 23.3667 49.1357 24.1167 50.2023 25.15C51.3023 26.15 51.8523 27.5167 51.8523 29.25C51.8523 31.45 50.969 33.2 49.2023 34.5C47.4357 35.8 45.0857 36.45 42.1523 36.45ZM67.5305 36.45C65.6305 36.45 64.0305 36.1167 62.7305 35.45C61.4638 34.75 60.5138 33.75 59.8805 32.45C59.2471 31.1167 58.9305 29.5 58.9305 27.6V14.85H55.5805C55.0138 14.85 54.5805 14.7167 54.2805 14.45C53.9805 14.15 53.8305 13.75 53.8305 13.25C53.8305 12.75 53.9805 12.3667 54.2805 12.1C54.5805 11.8333 55.0138 11.7 55.5805 11.7H58.9305V5.95C58.9305 5.28333 59.1138 4.78333 59.4805 4.45C59.8471 4.08333 60.3471 3.9 60.9805 3.9C61.6138 3.9 62.0971 4.08333 62.4305 4.45C62.7971 4.78333 62.9805 5.28333 62.9805 5.95V11.7H69.2805C69.8471 11.7 70.2805 11.8333 70.5805 12.1C70.8805 12.3667 71.0305 12.75 71.0305 13.25C71.0305 13.75 70.8805 14.15 70.5805 14.45C70.2805 14.7167 69.8471 14.85 69.2805 14.85H62.9805V27.2C62.9805 29.1 63.3805 30.55 64.1805 31.55C64.9805 32.5167 66.2805 33 68.0805 33C68.7138 33 69.2471 32.9333 69.6805 32.8C70.1471 32.6667 70.5305 32.6 70.8305 32.6C71.1305 32.5667 71.3805 32.6667 71.5805 32.9C71.7805 33.1333 71.8805 33.5333 71.8805 34.1C71.8805 34.5 71.7971 34.8667 71.6305 35.2C71.4971 35.5333 71.2471 35.7667 70.8805 35.9C70.4805 36.0333 69.9471 36.15 69.2805 36.25C68.6471 36.3833 68.0638 36.45 67.5305 36.45ZM80.9539 45.35C80.4539 45.35 80.0539 45.2167 79.7539 44.95C79.4539 44.6833 79.2706 44.3167 79.2039 43.85C79.1706 43.4167 79.2539 42.9667 79.4539 42.5L82.9039 34.75V36.5L73.3039 14.2C73.1039 13.7 73.0372 13.2333 73.1039 12.8C73.1706 12.3667 73.3706 12.0167 73.7039 11.75C74.0372 11.4833 74.5039 11.35 75.1039 11.35C75.6372 11.35 76.0539 11.4667 76.3539 11.7C76.6539 11.9333 76.9206 12.35 77.1539 12.95L85.3539 33.05H84.0039L92.3039 12.95C92.5706 12.35 92.8539 11.9333 93.1539 11.7C93.4539 11.4667 93.8872 11.35 94.4539 11.35C94.9872 11.35 95.3872 11.4833 95.6539 11.75C95.9539 12.0167 96.1206 12.3667 96.1539 12.8C96.2206 13.2 96.1539 13.65 95.9539 14.15L83.1539 43.75C82.8872 44.35 82.5872 44.7667 82.2539 45C81.9539 45.2333 81.5206 45.35 80.9539 45.35ZM103.238 36.35C102.571 36.35 102.071 36.1667 101.738 35.8C101.404 35.4333 101.238 34.9167 101.238 34.25V13.4C101.238 12.7333 101.404 12.2333 101.738 11.9C102.071 11.5333 102.554 11.35 103.188 11.35C103.821 11.35 104.304 11.5333 104.638 11.9C105.004 12.2333 105.188 12.7333 105.188 13.4V17.7L104.638 17.1C105.338 15.1667 106.471 13.7167 108.038 12.75C109.638 11.75 111.471 11.25 113.538 11.25C115.471 11.25 117.071 11.6 118.338 12.3C119.638 13 120.604 14.0667 121.238 15.5C121.871 16.9 122.188 18.6833 122.188 20.85V34.25C122.188 34.9167 122.004 35.4333 121.638 35.8C121.304 36.1667 120.821 36.35 120.188 36.35C119.521 36.35 119.004 36.1667 118.638 35.8C118.304 35.4333 118.138 34.9167 118.138 34.25V21.1C118.138 18.8333 117.688 17.1833 116.788 16.15C115.921 15.0833 114.521 14.55 112.588 14.55C110.354 14.55 108.571 15.25 107.238 16.65C105.938 18.0167 105.288 19.85 105.288 22.15V34.25C105.288 35.65 104.604 36.35 103.238 36.35ZM137.305 36.45C135.639 36.45 134.139 36.1333 132.805 35.5C131.505 34.8333 130.472 33.9333 129.705 32.8C128.939 31.6667 128.555 30.4 128.555 29C128.555 27.2 129.005 25.7833 129.905 24.75C130.839 23.7167 132.355 22.9833 134.455 22.55C136.589 22.1167 139.489 21.9 143.155 21.9H145.405V24.55H143.205C140.505 24.55 138.372 24.6833 136.805 24.95C135.272 25.1833 134.189 25.6 133.555 26.2C132.955 26.8 132.655 27.65 132.655 28.75C132.655 30.1167 133.122 31.2333 134.055 32.1C135.022 32.9667 136.322 33.4 137.955 33.4C139.289 33.4 140.455 33.0833 141.455 32.45C142.489 31.8167 143.289 30.95 143.855 29.85C144.455 28.75 144.755 27.4833 144.755 26.05V20.35C144.755 18.2833 144.339 16.8 143.505 15.9C142.672 14.9667 141.305 14.5 139.405 14.5C138.239 14.5 137.072 14.65 135.905 14.95C134.739 15.25 133.505 15.7333 132.205 16.4C131.739 16.6333 131.339 16.7167 131.005 16.65C130.672 16.55 130.405 16.3667 130.205 16.1C130.005 15.8333 129.889 15.5333 129.855 15.2C129.822 14.8333 129.889 14.4833 130.055 14.15C130.255 13.8167 130.555 13.55 130.955 13.35C132.422 12.6167 133.872 12.0833 135.305 11.75C136.739 11.4167 138.105 11.25 139.405 11.25C141.505 11.25 143.239 11.6 144.605 12.3C145.972 12.9667 146.989 14 147.655 15.4C148.322 16.7667 148.655 18.5333 148.655 20.7V34.25C148.655 34.9167 148.489 35.4333 148.155 35.8C147.855 36.1667 147.405 36.35 146.805 36.35C146.172 36.35 145.689 36.1667 145.355 35.8C145.022 35.4333 144.855 34.9167 144.855 34.25V30.35H145.305C145.039 31.6167 144.522 32.7 143.755 33.6C143.022 34.5 142.105 35.2 141.005 35.7C139.905 36.2 138.672 36.45 137.305 36.45Z" fill="#0E0E23"/>
</svg>
